<?xml version="1.0" encoding="UTF-8" standalone="no"?>
<!-- Generator: Adobe Illustrator 19.0.0, SVG Export Plug-In . SVG Version: 6.00 Build 0)  -->

<svg
   xmlns:dc="http://purl.org/dc/elements/1.1/"
   xmlns:cc="http://creativecommons.org/ns#"
   xmlns:rdf="http://www.w3.org/1999/02/22-rdf-syntax-ns#"
   xmlns:svg="http://www.w3.org/2000/svg"
   xmlns="http://www.w3.org/2000/svg"
   xmlns:sodipodi="http://sodipodi.sourceforge.net/DTD/sodipodi-0.dtd"
   xmlns:inkscape="http://www.inkscape.org/namespaces/inkscape"
   version="1.1"
   id="Layer_1"
   x="0px"
   y="0px"
   viewBox="0 0 469.997 469.997"
   style="enable-background:new 0 0 469.997 469.997;"
   xml:space="preserve"
   sodipodi:docname="clarinet.svg"
   inkscape:version="0.92.4 (5da689c313, 2019-01-14)"><metadata
   id="metadata43"><rdf:RDF><cc:Work
       rdf:about=""><dc:format>image/svg+xml</dc:format><dc:type
         rdf:resource="http://purl.org/dc/dcmitype/StillImage" /></cc:Work></rdf:RDF></metadata><defs
   id="defs41" /><sodipodi:namedview
   pagecolor="#ffffff"
   bordercolor="#666666"
   borderopacity="1"
   objecttolerance="10"
   gridtolerance="10"
   guidetolerance="10"
   inkscape:pageopacity="0"
   inkscape:pageshadow="2"
   inkscape:window-width="1920"
   inkscape:window-height="1017"
   id="namedview39"
   showgrid="false"
   inkscape:zoom="0.50213085"
   inkscape:cx="234.9985"
   inkscape:cy="234.9985"
   inkscape:window-x="-8"
   inkscape:window-y="-8"
   inkscape:window-maximized="1"
   inkscape:current-layer="Layer_1" />
<g
   id="g6">
	<g
   id="g4">
		<path
   d="M467.799,29.698L440.298,2.197c-2.664-2.663-6.889-2.937-9.873-0.645l-64.399,49.474c-0.021,0.017-0.04,0.037-0.061,0.053    c-0.232,0.183-0.459,0.377-0.674,0.591l-30.755,30.755c-0.009,0.009-37.127,37.127-37.127,37.127l-1.767-1.767    c-2.93-2.929-7.678-2.929-10.607,0c-2.929,2.929-2.929,7.678,0,10.606l1.768,1.768l-10.606,10.606l-1.767-1.767    c-2.93-2.929-7.678-2.929-10.607,0c-2.929,2.929-2.929,7.678,0,10.606l1.768,1.768l-10.607,10.607l-1.767-1.768    c-2.93-2.929-7.678-2.929-10.607,0s-2.929,7.678,0,10.606l1.768,1.768l-10.606,10.606l-1.767-1.767    c-2.93-2.929-7.678-2.929-10.607,0s-2.929,7.678,0,10.606l1.768,1.768l-10.606,10.606l-1.767-1.767    c-2.93-2.929-7.678-2.929-10.607,0c-2.929,2.929-2.929,7.678,0,10.606l1.768,1.768l-10.607,10.607l-1.768-1.768    c-2.928-2.93-7.677-2.929-10.606,0s-2.929,7.678,0.001,10.606l1.767,1.767l-10.607,10.607l-1.767-1.767    c-2.93-2.929-7.678-2.929-10.607,0c-2.929,2.929-2.929,7.678,0,10.606l1.768,1.768l-31.82,31.82l-1.768-1.768    c-2.928-2.93-7.677-2.929-10.606,0c-2.929,2.929-2.929,7.678,0.001,10.606l1.767,1.767L87.314,329.65l-72.238,59.105l-2.272-2.272    c-2.93-2.929-7.678-2.929-10.607,0c-2.929,2.929-2.929,7.678,0,10.606l63.623,63.623c0.005,0.005,7.088,7.088,7.088,7.088    c1.465,1.464,3.385,2.197,5.304,2.197s3.839-0.732,5.304-2.197c2.929-2.929,2.929-7.678,0-10.606l-2.272-2.272l59.105-72.239    l51-51l1.768,1.768c1.465,1.465,3.384,2.197,5.304,2.197c1.919,0,3.839-0.732,5.304-2.197c2.929-2.929,2.929-7.678,0-10.606    l-1.768-1.768l10.606-10.606l1.767,1.767c1.465,1.464,3.385,2.197,5.304,2.197s3.839-0.732,5.304-2.197    c2.929-2.929,2.929-7.678,0-10.606l-1.768-1.768l77.781-77.782l1.768,1.768c1.465,1.464,3.385,2.197,5.304,2.197    c1.919,0,3.839-0.732,5.304-2.197c2.929-2.929,2.929-7.678,0-10.606l-1.768-1.768l10.607-10.606l1.767,1.767    c1.465,1.465,3.384,2.197,5.304,2.197c1.919,0,3.839-0.732,5.303-2.196c2.93-2.929,2.93-7.678,0.001-10.606l-1.768-1.768    l85.56-85.56c0.216-0.216,0.411-0.444,0.594-0.678c0.015-0.02,0.034-0.036,0.049-0.056l49.475-64.399    C470.736,36.584,470.461,32.361,467.799,29.698z M233.769,204.406l10.607,10.606l-10.606,10.606l-10.607-10.607L233.769,204.406z     M212.556,225.619l10.607,10.607l-10.607,10.607l-10.607-10.606L212.556,225.619z M191.343,246.832l10.607,10.606l-10.607,10.607    l-10.607-10.606L191.343,246.832z M170.13,268.046l10.607,10.606l-15.908,15.908c-0.003,0.003-15.911,15.912-15.911,15.912    l-10.607-10.606L170.13,268.046z M70.579,444.264L25.73,399.417l66.114-54.094l32.828,32.827L70.579,444.264z M134.775,367.04    l-31.82-31.819l24.749-24.749l10.607,10.606l-8.84,8.839c-2.929,2.929-2.929,7.678,0,10.606c1.465,1.464,3.385,2.197,5.304,2.197    s3.839-0.732,5.304-2.197l14.137-14.137c0.01-0.01,15.914-15.914,15.914-15.914l10.606,10.606L134.775,367.04z M191.343,310.472    l-10.606-10.606l10.606-10.606l10.606,10.606L191.343,310.472z M295.644,206.171c-0.006,0.006-83.088,83.087-83.088,83.087    l-10.606-10.606l15.906-15.906c0.01-0.01,42.431-42.431,42.431-42.431c2.929-2.929,2.929-7.678,0-10.606l-15.91-15.91    l10.606-10.606l15.909,15.909c1.465,1.464,3.385,2.197,5.304,2.197c1.919,0,3.839-0.732,5.304-2.197    c2.929-2.929,2.929-7.678,0-10.606l-15.91-15.91l10.607-10.607l15.91,15.91c1.465,1.464,3.385,2.197,5.304,2.197    c1.919,0,3.839-0.732,5.304-2.197c2.929-2.929,2.929-7.678,0-10.606l-15.91-15.91l10.606-10.606l15.91,15.91    c1.465,1.464,3.385,2.197,5.304,2.197c1.919,0,3.839-0.732,5.304-2.197c2.929-2.929,2.929-7.678,0-10.606l-15.91-15.91    l31.816-31.821l31.82,31.82L295.644,206.171z M382.262,119.553l-31.82-31.82l20.153-20.152l31.819,31.82L382.262,119.553z     M412.28,88.054l-30.338-30.339l52.403-40.257l18.193,18.194L412.28,88.054z"
   id="path2"
   style="fill:#0a2348;fill-opacity:1" />
	</g>
</g>
<g
   id="g8">
</g>
<g
   id="g10">
</g>
<g
   id="g12">
</g>
<g
   id="g14">
</g>
<g
   id="g16">
</g>
<g
   id="g18">
</g>
<g
   id="g20">
</g>
<g
   id="g22">
</g>
<g
   id="g24">
</g>
<g
   id="g26">
</g>
<g
   id="g28">
</g>
<g
   id="g30">
</g>
<g
   id="g32">
</g>
<g
   id="g34">
</g>
<g
   id="g36">
</g>
</svg>