<?xml version="1.0" encoding="UTF-8" standalone="no"?>
<!-- Generator: Adobe Illustrator 19.0.0, SVG Export Plug-In . SVG Version: 6.00 Build 0)  -->

<svg
   xmlns:dc="http://purl.org/dc/elements/1.1/"
   xmlns:cc="http://creativecommons.org/ns#"
   xmlns:rdf="http://www.w3.org/1999/02/22-rdf-syntax-ns#"
   xmlns:svg="http://www.w3.org/2000/svg"
   xmlns="http://www.w3.org/2000/svg"
   xmlns:sodipodi="http://sodipodi.sourceforge.net/DTD/sodipodi-0.dtd"
   xmlns:inkscape="http://www.inkscape.org/namespaces/inkscape"
   version="1.1"
   id="Layer_1"
   x="0px"
   y="0px"
   viewBox="0 0 472.925 472.925"
   style="enable-background:new 0 0 472.925 472.925;"
   xml:space="preserve"
   sodipodi:docname="guitar.svg"
   inkscape:version="0.92.4 (5da689c313, 2019-01-14)"><metadata
   id="metadata49"><rdf:RDF><cc:Work
       rdf:about=""><dc:format>image/svg+xml</dc:format><dc:type
         rdf:resource="http://purl.org/dc/dcmitype/StillImage" /></cc:Work></rdf:RDF></metadata><defs
   id="defs47" /><sodipodi:namedview
   pagecolor="#ffffff"
   bordercolor="#666666"
   borderopacity="1"
   objecttolerance="10"
   gridtolerance="10"
   guidetolerance="10"
   inkscape:pageopacity="0"
   inkscape:pageshadow="2"
   inkscape:window-width="1920"
   inkscape:window-height="1017"
   id="namedview45"
   showgrid="false"
   showguides="false"
   inkscape:zoom="0.49902206"
   inkscape:cx="236.46249"
   inkscape:cy="236.46249"
   inkscape:window-x="-8"
   inkscape:window-y="-8"
   inkscape:window-maximized="1"
   inkscape:current-layer="Layer_1" />
<g
   id="g12">
	<g
   id="g10">
		<g
   id="g8">
			<path
   d="M195.112,230.422c-26.147,0-47.42,21.272-47.42,47.42c0,26.148,21.272,47.42,47.42,47.42     c26.147,0,47.419-21.272,47.419-47.42C242.531,251.694,221.259,230.422,195.112,230.422z M195.112,310.262     c-17.876,0-32.42-14.543-32.42-32.42s14.543-32.42,32.42-32.42c17.876,0,32.419,14.543,32.419,32.42     C227.531,295.719,212.988,310.262,195.112,310.262z"
   id="path2"
   style="fill:#0a2348;fill-opacity:1" />
			<path
   d="M103.611,295.265c-1.406-1.407-3.314-2.197-5.303-2.197c-1.989,0-3.897,0.79-5.303,2.197l-21.17,21.171     c-2.929,2.929-2.929,7.677,0,10.606l74.078,74.078c1.464,1.465,3.384,2.197,5.303,2.197s3.839-0.732,5.303-2.197l21.171-21.171     c1.407-1.407,2.197-3.314,2.197-5.303s-0.79-3.897-2.197-5.303L103.611,295.265z M151.215,385.21l-63.471-63.471l10.564-10.564     l63.472,63.471L151.215,385.21z"
   id="path4"
   style="fill:#0a2348;fill-opacity:1" />
			<path
   d="M470.728,65.352l-6.127-6.127l4.695-4.695c2.929-2.929,2.929-7.677,0-10.606L429.031,3.658     c-2.929-2.929-7.678-2.929-10.606,0l-4.695,4.695l-6.127-6.127c-2.929-2.929-7.678-2.929-10.606,0     c-2.929,2.929-2.929,7.677,0,10.606l6.127,6.127l-6.303,6.303l-6.128-6.128c-2.929-2.929-7.678-2.929-10.606,0     c-2.929,2.929-2.929,7.678,0,10.607l6.128,6.128l-6.303,6.303l-6.064-6.064c-2.929-2.929-7.678-2.929-10.606,0     c-2.929,2.929-2.929,7.677,0,10.606l6.064,6.064l-4.695,4.695c-1.119,1.118-1.855,2.562-2.104,4.125l-2.892,18.172     L249.402,183.479c-34.42-17.305-76.443-10.763-104.008,16.804c-6.442,6.442-11.816,13.735-16.021,21.732     c-34.563-1.05-68.073,12.157-92.614,36.698C13.054,282.416,0,313.932,0,347.454c0,33.522,13.054,65.038,36.758,88.742     c24.466,24.466,56.604,36.699,88.742,36.699s64.276-12.233,88.742-36.699c24.541-24.541,37.757-58.051,36.698-92.614     c7.998-4.204,15.291-9.578,21.732-16.02c27.567-27.566,34.108-69.59,16.804-104.009l103.708-110.211l18.171-2.892     c1.562-0.249,3.006-0.985,4.125-2.104l4.695-4.695l6.064,6.064c1.464,1.464,3.384,2.197,5.303,2.197s3.839-0.732,5.303-2.197     c2.929-2.929,2.929-7.678,0-10.607l-6.064-6.064l6.303-6.303l6.128,6.128c1.464,1.464,3.384,2.197,5.303,2.197     s3.839-0.732,5.303-2.197c2.929-2.929,2.929-7.678,0-10.607l-6.128-6.128l6.303-6.304l6.127,6.127     c1.464,1.465,3.384,2.197,5.303,2.197s3.839-0.732,5.303-2.197C473.657,73.03,473.657,68.281,470.728,65.352z M252.119,241.364     c-2.839,3.017-2.694,7.763,0.322,10.602c1.448,1.363,3.295,2.038,5.138,2.038c1.996,0,3.988-0.792,5.463-2.36l15.345-16.307     c11.416,27.648,5.319,59.977-16.322,81.618c-6.391,6.391-13.782,11.519-21.97,15.242c-2.854,1.298-4.599,4.233-4.376,7.36     c2.278,32.007-9.416,63.365-32.083,86.033c-43.084,43.084-113.187,43.083-156.271,0C26.494,404.719,15,376.97,15,347.454     s11.494-57.264,32.365-78.135c22.668-22.668,54.029-34.359,86.032-32.083c3.128,0.228,6.063-1.523,7.36-4.376     c3.724-8.188,8.852-15.579,15.243-21.97c21.64-21.641,53.97-27.738,81.619-16.323l-16.308,15.345     c-3.017,2.838-3.161,7.585-0.322,10.602c2.839,3.017,7.584,3.161,10.602,0.322l134.868-126.91l12.57,12.57L252.119,241.364z      M406.594,96.019l-14.52,2.311l-17.45-17.45l2.311-14.519l46.792-46.792l29.659,29.658L406.594,96.019z"
   id="path6"
   style="fill:#0a2348;fill-opacity:1" />
		</g>
	</g>
</g>
<g
   id="g14">
</g>
<g
   id="g16">
</g>
<g
   id="g18">
</g>
<g
   id="g20">
</g>
<g
   id="g22">
</g>
<g
   id="g24">
</g>
<g
   id="g26">
</g>
<g
   id="g28">
</g>
<g
   id="g30">
</g>
<g
   id="g32">
</g>
<g
   id="g34">
</g>
<g
   id="g36">
</g>
<g
   id="g38">
</g>
<g
   id="g40">
</g>
<g
   id="g42">
</g>
</svg>