<?xml version="1.0" encoding="UTF-8" standalone="no"?>
<!-- Generator: Adobe Illustrator 19.0.0, SVG Export Plug-In . SVG Version: 6.00 Build 0)  -->

<svg
   xmlns:dc="http://purl.org/dc/elements/1.1/"
   xmlns:cc="http://creativecommons.org/ns#"
   xmlns:rdf="http://www.w3.org/1999/02/22-rdf-syntax-ns#"
   xmlns:svg="http://www.w3.org/2000/svg"
   xmlns="http://www.w3.org/2000/svg"
   xmlns:sodipodi="http://sodipodi.sourceforge.net/DTD/sodipodi-0.dtd"
   xmlns:inkscape="http://www.inkscape.org/namespaces/inkscape"
   version="1.1"
   id="Layer_1"
   x="0px"
   y="0px"
   viewBox="0 0 470 470"
   style="enable-background:new 0 0 470 470;"
   xml:space="preserve"
   sodipodi:docname="organ.svg"
   inkscape:version="0.92.4 (5da689c313, 2019-01-14)"><metadata
   id="metadata83"><rdf:RDF><cc:Work
       rdf:about=""><dc:format>image/svg+xml</dc:format><dc:type
         rdf:resource="http://purl.org/dc/dcmitype/StillImage" /></cc:Work></rdf:RDF></metadata><defs
   id="defs81" /><sodipodi:namedview
   pagecolor="#ffffff"
   bordercolor="#666666"
   borderopacity="1"
   objecttolerance="10"
   gridtolerance="10"
   guidetolerance="10"
   inkscape:pageopacity="0"
   inkscape:pageshadow="2"
   inkscape:window-width="1920"
   inkscape:window-height="1017"
   id="namedview79"
   showgrid="false"
   inkscape:zoom="0.50212766"
   inkscape:cx="235"
   inkscape:cy="235"
   inkscape:window-x="-8"
   inkscape:window-y="-8"
   inkscape:window-maximized="1"
   inkscape:current-layer="Layer_1" />
<g
   id="g46">
	<g
   id="g44">
		<g
   id="g42">
			<path
   d="M462.5,12.5H7.5C3.358,12.5,0,15.857,0,20v430c0,4.143,3.358,7.5,7.5,7.5h455c4.142,0,7.5-3.357,7.5-7.5V20     C470,15.857,466.642,12.5,462.5,12.5z M136,442.5H90v-30h7.5c4.142,0,7.5-3.357,7.5-7.5v-67.5h16V405c0,4.143,3.358,7.5,7.5,7.5     h7.5V442.5z M75,397.5v-60h15v60H75z M197,442.5h-46v-30h7.5c4.142,0,7.5-3.357,7.5-7.5v-67.5h31V442.5z M136,397.5v-60h15v60     H136z M258,442.5h-46v-105h31V405c0,4.143,3.358,7.5,7.5,7.5h7.5V442.5z M319,442.5h-46v-30h7.5c4.142,0,7.5-3.357,7.5-7.5v-67.5     h16V405c0,4.143,3.358,7.5,7.5,7.5h7.5V442.5z M258,397.5v-60h15v60H258z M380,442.5h-46v-30h7.5c4.142,0,7.5-3.357,7.5-7.5     v-67.5h16V405c0,4.143,3.358,7.5,7.5,7.5h7.5V442.5z M319,397.5v-60h15v60H319z M455,442.5h-60v-30h7.5     c4.142,0,7.5-3.357,7.5-7.5v-67.5h22.5c4.142,0,7.5-3.357,7.5-7.5s-3.358-7.5-7.5-7.5h-395c-4.142,0-7.5,3.357-7.5,7.5     s3.358,7.5,7.5,7.5H60V405c0,4.143,3.358,7.5,7.5,7.5H75v30H15v-415h440V442.5z M380,397.5v-60h15v60H380z"
   id="path2"
   style="fill:#0a2348;fill-opacity:1" />
			<path
   style="fill:#0a2348;fill-opacity:1"
   d="m 395,105 a 7.5,7.5 0 0 1 -7.5,7.5 7.5,7.5 0 0 1 -7.5,-7.5 7.5,7.5 0 0 1 7.5,-7.5 7.5,7.5 0 0 1 7.5,7.5 z"
   id="circle4" />
			<path
   style="fill:#0a2348;fill-opacity:1"
   d="M 395,60 A 7.5,7.5 0 0 1 387.5,67.5 7.5,7.5 0 0 1 380,60 7.5,7.5 0 0 1 387.5,52.5 7.5,7.5 0 0 1 395,60 Z"
   id="circle6" />
			<path
   style="fill:#0a2348;fill-opacity:1"
   d="m 395,225 a 7.5,7.5 0 0 1 -7.5,7.5 7.5,7.5 0 0 1 -7.5,-7.5 7.5,7.5 0 0 1 7.5,-7.5 7.5,7.5 0 0 1 7.5,7.5 z"
   id="circle8" />
			<path
   style="fill:#0a2348;fill-opacity:1"
   d="M 80,225 A 7.5,7.5 0 0 1 72.5,232.5 7.5,7.5 0 0 1 65,225 7.5,7.5 0 0 1 72.5,217.5 7.5,7.5 0 0 1 80,225 Z"
   id="circle10" />
			<path
   d="M324.5,187.5c12.407,0,22.5-10.094,22.5-22.5s-10.093-22.5-22.5-22.5c-12.407,0-22.5,10.094-22.5,22.5     S312.093,187.5,324.5,187.5z M324.5,157.5c4.136,0,7.5,3.364,7.5,7.5s-3.364,7.5-7.5,7.5s-7.5-3.364-7.5-7.5     S320.364,157.5,324.5,157.5z"
   id="path12"
   style="fill:#0a2348;fill-opacity:1" />
			<path
   d="M387.5,187.5c12.407,0,22.5-10.094,22.5-22.5s-10.093-22.5-22.5-22.5c-12.407,0-22.5,10.094-22.5,22.5     S375.093,187.5,387.5,187.5z M387.5,157.5c4.136,0,7.5,3.364,7.5,7.5s-3.364,7.5-7.5,7.5s-7.5-3.364-7.5-7.5     S383.364,157.5,387.5,157.5z"
   id="path14"
   style="fill:#0a2348;fill-opacity:1" />
			<path
   d="M72.5,187.5c12.407,0,22.5-10.094,22.5-22.5s-10.093-22.5-22.5-22.5S50,152.594,50,165S60.093,187.5,72.5,187.5z      M72.5,157.5c4.136,0,7.5,3.364,7.5,7.5s-3.364,7.5-7.5,7.5S65,169.136,65,165S68.364,157.5,72.5,157.5z"
   id="path16"
   style="fill:#0a2348;fill-opacity:1" />
			<path
   d="M135.5,142.5c-12.407,0-22.5,10.094-22.5,22.5s10.093,22.5,22.5,22.5S158,177.406,158,165S147.907,142.5,135.5,142.5z      M135.5,172.5c-4.136,0-7.5-3.364-7.5-7.5s3.364-7.5,7.5-7.5s7.5,3.364,7.5,7.5S139.636,172.5,135.5,172.5z"
   id="path18"
   style="fill:#0a2348;fill-opacity:1" />
			<path
   d="M198.5,142.5c-12.407,0-22.5,10.094-22.5,22.5s10.093,22.5,22.5,22.5S221,177.406,221,165S210.907,142.5,198.5,142.5z      M198.5,172.5c-4.136,0-7.5-3.364-7.5-7.5s3.364-7.5,7.5-7.5s7.5,3.364,7.5,7.5S202.636,172.5,198.5,172.5z"
   id="path20"
   style="fill:#0a2348;fill-opacity:1" />
			<path
   d="M261.5,187.5c12.407,0,22.5-10.094,22.5-22.5s-10.093-22.5-22.5-22.5c-12.407,0-22.5,10.094-22.5,22.5     S249.093,187.5,261.5,187.5z M261.5,157.5c4.136,0,7.5,3.364,7.5,7.5s-3.364,7.5-7.5,7.5s-7.5-3.364-7.5-7.5     S257.364,157.5,261.5,157.5z"
   id="path22"
   style="fill:#0a2348;fill-opacity:1" />
			<path
   d="M261.5,247.5c12.407,0,22.5-10.094,22.5-22.5s-10.093-22.5-22.5-22.5c-12.407,0-22.5,10.094-22.5,22.5     S249.093,247.5,261.5,247.5z M261.5,217.5c4.136,0,7.5,3.364,7.5,7.5s-3.364,7.5-7.5,7.5s-7.5-3.364-7.5-7.5     S257.364,217.5,261.5,217.5z"
   id="path24"
   style="fill:#0a2348;fill-opacity:1" />
			<path
   d="M324.5,307.5c12.407,0,22.5-10.094,22.5-22.5s-10.093-22.5-22.5-22.5c-12.407,0-22.5,10.094-22.5,22.5     S312.093,307.5,324.5,307.5z M324.5,277.5c4.136,0,7.5,3.364,7.5,7.5s-3.364,7.5-7.5,7.5s-7.5-3.364-7.5-7.5     S320.364,277.5,324.5,277.5z"
   id="path26"
   style="fill:#0a2348;fill-opacity:1" />
			<path
   d="M387.5,307.5c12.407,0,22.5-10.094,22.5-22.5s-10.093-22.5-22.5-22.5c-12.407,0-22.5,10.094-22.5,22.5     S375.093,307.5,387.5,307.5z M387.5,277.5c4.136,0,7.5,3.364,7.5,7.5s-3.364,7.5-7.5,7.5s-7.5-3.364-7.5-7.5     S383.364,277.5,387.5,277.5z"
   id="path28"
   style="fill:#0a2348;fill-opacity:1" />
			<path
   d="M72.5,307.5c12.407,0,22.5-10.094,22.5-22.5s-10.093-22.5-22.5-22.5S50,272.594,50,285S60.093,307.5,72.5,307.5z      M72.5,277.5c4.136,0,7.5,3.364,7.5,7.5s-3.364,7.5-7.5,7.5S65,289.136,65,285S68.364,277.5,72.5,277.5z"
   id="path30"
   style="fill:#0a2348;fill-opacity:1" />
			<path
   d="M135.5,262.5c-12.407,0-22.5,10.094-22.5,22.5s10.093,22.5,22.5,22.5S158,297.406,158,285S147.907,262.5,135.5,262.5z      M135.5,292.5c-4.136,0-7.5-3.364-7.5-7.5s3.364-7.5,7.5-7.5s7.5,3.364,7.5,7.5S139.636,292.5,135.5,292.5z"
   id="path32"
   style="fill:#0a2348;fill-opacity:1" />
			<path
   d="m 198.5,262.5 c -12.407,0 -22.5,10.094 -22.5,22.5 0,12.406 10.093,22.5 22.5,22.5 12.407,0 22.5,-11.8934 22.5,-22.5 0,-10.6066 -10.093,-22.5 -22.5,-22.5 z m 0,30 c -4.136,0 -7.5,-3.364 -7.5,-7.5 0,-4.136 3.364,-7.5 7.5,-7.5 4.136,0 7.5,3.364 7.5,7.5 0,4.136 -3.364,7.5 -7.5,7.5 z"
   id="path34"
   inkscape:connector-curvature="0"
   sodipodi:nodetypes="sssassssss"
   style="fill:#0a2348;fill-opacity:1" />
			<path
   d="M261.5,307.5c12.407,0,22.5-10.094,22.5-22.5s-10.093-22.5-22.5-22.5c-12.407,0-22.5,10.094-22.5,22.5     S249.093,307.5,261.5,307.5z M261.5,277.5c4.136,0,7.5,3.364,7.5,7.5s-3.364,7.5-7.5,7.5s-7.5-3.364-7.5-7.5     S257.364,277.5,261.5,277.5z"
   id="path36"
   style="fill:#0a2348;fill-opacity:1" />
			<path
   d="M57.5,127.5h156c4.142,0,7.5-3.357,7.5-7.5V50c0-4.143-3.358-7.5-7.5-7.5h-96c-4.142,0-7.5,3.357-7.5,7.5     s3.358,7.5,7.5,7.5H206v55H65v-55h22.5c4.142,0,7.5-3.357,7.5-7.5s-3.358-7.5-7.5-7.5h-30c-4.142,0-7.5,3.357-7.5,7.5v70     C50,124.143,53.358,127.5,57.5,127.5z"
   id="path38"
   style="fill:#0a2348;fill-opacity:1" />
			<path
   d="M261.5,127.5c12.407,0,22.5-10.094,22.5-22.5s-10.093-22.5-22.5-22.5c-12.407,0-22.5,10.094-22.5,22.5     S249.093,127.5,261.5,127.5z M261.5,97.5c4.136,0,7.5,3.364,7.5,7.5s-3.364,7.5-7.5,7.5s-7.5-3.364-7.5-7.5     S257.364,97.5,261.5,97.5z"
   id="path40"
   style="fill:#0a2348;fill-opacity:1" />
		</g>
	</g>
</g>
<g
   id="g48">
</g>
<g
   id="g50">
</g>
<g
   id="g52">
</g>
<g
   id="g54">
</g>
<g
   id="g56">
</g>
<g
   id="g58">
</g>
<g
   id="g60">
</g>
<g
   id="g62">
</g>
<g
   id="g64">
</g>
<g
   id="g66">
</g>
<g
   id="g68">
</g>
<g
   id="g70">
</g>
<g
   id="g72">
</g>
<g
   id="g74">
</g>
<g
   id="g76">
</g>
</svg>