<?xml version="1.0" encoding="UTF-8" standalone="no"?>
<!-- Generator: Adobe Illustrator 19.0.0, SVG Export Plug-In . SVG Version: 6.00 Build 0)  -->

<svg
   xmlns:dc="http://purl.org/dc/elements/1.1/"
   xmlns:cc="http://creativecommons.org/ns#"
   xmlns:rdf="http://www.w3.org/1999/02/22-rdf-syntax-ns#"
   xmlns:svg="http://www.w3.org/2000/svg"
   xmlns="http://www.w3.org/2000/svg"
   xmlns:sodipodi="http://sodipodi.sourceforge.net/DTD/sodipodi-0.dtd"
   xmlns:inkscape="http://www.inkscape.org/namespaces/inkscape"
   version="1.1"
   id="Layer_1"
   x="0px"
   y="0px"
   viewBox="0 0 470 470"
   style="enable-background:new 0 0 470 470;"
   xml:space="preserve"
   sodipodi:docname="piano.svg"
   inkscape:version="0.92.4 (5da689c313, 2019-01-14)"><metadata
   id="metadata47"><rdf:RDF><cc:Work
       rdf:about=""><dc:format>image/svg+xml</dc:format><dc:type
         rdf:resource="http://purl.org/dc/dcmitype/StillImage" /></cc:Work></rdf:RDF></metadata><defs
   id="defs45" /><sodipodi:namedview
   pagecolor="#ffffff"
   bordercolor="#666666"
   borderopacity="1"
   objecttolerance="10"
   gridtolerance="10"
   guidetolerance="10"
   inkscape:pageopacity="0"
   inkscape:pageshadow="2"
   inkscape:window-width="1920"
   inkscape:window-height="1017"
   id="namedview43"
   showgrid="false"
   inkscape:zoom="0.50212766"
   inkscape:cx="235"
   inkscape:cy="235"
   inkscape:window-x="-8"
   inkscape:window-y="-8"
   inkscape:window-maximized="1"
   inkscape:current-layer="Layer_1" />
<g
   id="g10">
	<g
   id="g8">
		<g
   id="g6">
			<path
   d="M412.393,204.264h-75.28c-14.103,0-26.54-8.96-30.962-22.331c-0.212-0.631-21.298-63.37-28.229-84.185     C258.45,39.282,204.051,0,142.553,0C63.949,0,0,63.949,0,142.553V462.5c0,4.142,3.357,7.5,7.5,7.5h455c4.143,0,7.5-3.358,7.5-7.5     V261.783C470,230.067,444.157,204.264,412.393,204.264z M136,455H90v-30h7.5c4.143,0,7.5-3.358,7.5-7.5V350h16v67.5     c0,4.142,3.357,7.5,7.5,7.5h7.5V455z M75,410v-60h15v60H75z M197,455h-46v-30h7.5c4.143,0,7.5-3.358,7.5-7.5V350h31V455z      M136,410v-60h15v60H136z M258,455h-46V350h31v67.5c0,4.142,3.357,7.5,7.5,7.5h7.5V455z M319,455h-46v-30h7.5     c4.143,0,7.5-3.358,7.5-7.5V350h16v67.5c0,4.142,3.357,7.5,7.5,7.5h7.5V455z M258,410v-60h15v60H258z M380,455h-46v-30h7.5     c4.143,0,7.5-3.358,7.5-7.5V350h16v67.5c0,4.142,3.357,7.5,7.5,7.5h7.5V455z M319,410v-60h15v60H319z M395,455v-30h7.5     c4.143,0,7.5-3.358,7.5-7.5V350h22.5c4.143,0,7.5-3.358,7.5-7.5c0-4.142-3.357-7.5-7.5-7.5h-395c-4.143,0-7.5,3.358-7.5,7.5     c0,4.142,3.357,7.5,7.5,7.5H60v67.5c0,4.142,3.357,7.5,7.5,7.5H75v30H15V142.553C15,72.22,72.22,15,142.553,15     c55.029,0,103.71,35.158,121.136,87.487c6.939,20.834,28.031,83.593,28.231,84.19c6.446,19.491,24.607,32.587,45.192,32.586     h75.28c23.494,0,42.607,19.074,42.607,42.52V455H395z M380,410v-60h15v60H380z"
   id="path2"
   style="fill:#0a2348;fill-opacity:1" />
			<path
   d="M312.5,275h-155c-4.143,0-7.5,3.358-7.5,7.5v30c0,4.142,3.357,7.5,7.5,7.5s7.5-3.358,7.5-7.5V290h140v22.5     c0,4.142,3.357,7.5,7.5,7.5s7.5-3.358,7.5-7.5v-30C320,278.358,316.643,275,312.5,275z"
   id="path4"
   style="fill:#0a2348;fill-opacity:1" />
		</g>
	</g>
</g>
<g
   id="g12">
</g>
<g
   id="g14">
</g>
<g
   id="g16">
</g>
<g
   id="g18">
</g>
<g
   id="g20">
</g>
<g
   id="g22">
</g>
<g
   id="g24">
</g>
<g
   id="g26">
</g>
<g
   id="g28">
</g>
<g
   id="g30">
</g>
<g
   id="g32">
</g>
<g
   id="g34">
</g>
<g
   id="g36">
</g>
<g
   id="g38">
</g>
<g
   id="g40">
</g>
</svg>