<?xml version="1.0" encoding="UTF-8" standalone="no"?>
<!-- Generator: Adobe Illustrator 18.0.0, SVG Export Plug-In . SVG Version: 6.00 Build 0)  -->

<svg
   xmlns:dc="http://purl.org/dc/elements/1.1/"
   xmlns:cc="http://creativecommons.org/ns#"
   xmlns:rdf="http://www.w3.org/1999/02/22-rdf-syntax-ns#"
   xmlns:svg="http://www.w3.org/2000/svg"
   xmlns="http://www.w3.org/2000/svg"
   xmlns:sodipodi="http://sodipodi.sourceforge.net/DTD/sodipodi-0.dtd"
   xmlns:inkscape="http://www.inkscape.org/namespaces/inkscape"
   version="1.1"
   id="Capa_1"
   x="0px"
   y="0px"
   viewBox="0 0 490.904 490.904"
   style="enable-background:new 0 0 490.904 490.904;"
   xml:space="preserve"
   sodipodi:docname="voice-1.svg"
   inkscape:version="0.92.4 (5da689c313, 2019-01-14)"><metadata
   id="metadata43"><rdf:RDF><cc:Work
       rdf:about=""><dc:format>image/svg+xml</dc:format><dc:type
         rdf:resource="http://purl.org/dc/dcmitype/StillImage" /></cc:Work></rdf:RDF></metadata><defs
   id="defs41" /><sodipodi:namedview
   pagecolor="#ffffff"
   bordercolor="#666666"
   borderopacity="1"
   objecttolerance="10"
   gridtolerance="10"
   guidetolerance="10"
   inkscape:pageopacity="0"
   inkscape:pageshadow="2"
   inkscape:window-width="1920"
   inkscape:window-height="1017"
   id="namedview39"
   showgrid="false"
   inkscape:zoom="0.48074573"
   inkscape:cx="245.452"
   inkscape:cy="245.452"
   inkscape:window-x="-8"
   inkscape:window-y="-8"
   inkscape:window-maximized="1"
   inkscape:current-layer="Capa_1" />
<g
   id="g6">
	<path
   d="M209.74,134.651c0.404,0,0.814-0.058,1.218-0.179c9.178-2.744,35.915-8.506,49.37-2.345   c8.225,4.234,17.219,6.414,26.356,6.414c4.311,0,8.653-0.483,12.961-1.462c13.359-3.033,24.784-10.606,32.803-20.839   c0.061-0.063,0.132-0.109,0.19-0.176c12.74-14.741,50.242-20.655,50.619-20.713c2.162-0.333,3.719-2.252,3.599-4.435   c-2.028-36.717-22.415-64.106-58.958-79.207c-26.708-11.037-52.444-11.66-54.292-11.69c-2.378-0.1-6.658,0.196-9.342,0.806   c-8.202,1.862-12.742,6.905-15.708,11.793c-2.757-0.302-5.519-0.151-8.244,0.468c-6.475,1.469-12.014,5.326-15.614,10.866   c-1.199,1.606-11.381,15.534-18.862,35.125c-10.47,27.421-10.427,52.757,0.126,73.267   C206.704,133.789,208.182,134.651,209.74,134.651z M297.762,128.79c-12.902,2.929-26.169,0.659-37.362-6.391   c-11.193-7.05-18.97-18.038-21.899-30.939c-3.016-13.281-0.446-27.048,7.02-38.312c17.617,10.583,53.505,29.051,90.73,30.055   C335.065,105.035,319.388,123.88,297.762,128.79z M231.573,28.951c0.067-0.089,0.131-0.18,0.191-0.274   c2.387-3.724,6.09-6.317,10.43-7.302c2.506-0.57,5.064-0.547,7.605,0.065c1.941,0.469,3.88-0.484,4.759-2.18l0.011,0.005   c3.141-6.056,6.495-8.998,11.577-10.151c1.72-0.39,5.252-0.688,7.139-0.601c0.045,0.002,0.093,0.003,0.139,0.004   c0.255,0.004,25.801,0.484,51.446,11.138c32.378,13.451,50.268,36.309,53.222,67.978c-7.24,1.385-23.15,4.957-36.395,11.62   c1.766-5.126,2.816-10.549,3.066-16.132c4.952-0.239,9.906-0.816,14.819-1.797c2.302-0.46,3.795-2.698,3.336-5   c-0.46-2.302-2.694-3.795-5-3.336c-54.891,10.961-118.023-33.53-118.654-33.98c-1.91-1.363-4.564-0.921-5.928,0.988   c-1.364,1.91-0.923,4.563,0.986,5.928c0.35,0.25,1.736,1.23,4.001,2.714c-8.657,13.162-11.626,29.216-8.109,44.706   c2.393,10.541,7.556,19.986,14.906,27.543c-13.109-0.187-26.784,2.861-33.081,4.481C192.47,81.484,231.171,29.481,231.573,28.951z"
   id="path2"
   style="fill:#0a2348;fill-opacity:1" />
	<path
   d="M458.656,322.274l-57.222-102.68c0.13,0.002,0.261,0.009,0.391,0.009c10.1-0.001,19.68-6.027,23.717-15.98   c0.009-0.021,0.017-0.042,0.025-0.063l21.676-54.188c5.257-13.081-1.075-27.986-14.114-33.227   c-6.337-2.547-13.295-2.482-19.592,0.187c-6.312,2.673-11.19,7.636-13.739,13.979l-12.197,30.491l-40.415-16.166   c-9.043-4.273-19.456-6.623-30.477-6.623c-5.546,0-11.076,0.617-16.436,1.834c-18.191,4.13-33.665,14.8-43.167,28.501   l-50.147,8.561c0.697-7.94-1.982-16.124-8.046-22.188c-5.27-5.269-12.275-8.171-19.728-8.171c-7.452,0-14.458,2.902-19.728,8.171   c-6.536,6.537-9.139,15.536-7.82,24.038c-0.22,0.149-0.431,0.316-0.626,0.511l-28.694,28.695c-2.458,2.457-3.811,5.724-3.811,9.199   c0,3.285,1.222,6.375,3.43,8.779l-39.595,39.605v-7.736c0-2.347-1.903-4.25-4.25-4.25c-2.347,0-4.25,1.903-4.25,4.25v16.238   l-14.757,14.761c-1.66,1.66-1.659,4.351,0,6.01c0.83,0.83,1.917,1.245,3.005,1.245c1.088,0,2.176-0.415,3.005-1.245l8.747-8.748   v192.736c0,0.7,0.186,1.351,0.485,1.933H35.961c-2.347,0-4.25,1.903-4.25,4.25c0,2.347,1.903,4.25,4.25,4.25h101.885   c2.347,0,4.25-1.903,4.25-4.25c0-2.347-1.903-4.25-4.25-4.25H81.857c0.3-0.582,0.485-1.233,0.485-1.933V277.57l45.617-45.629   c2.365,2.055,5.348,3.187,8.512,3.187c1.554,0,3.06-0.285,4.477-0.803l104.868-17.057l-9.65,155.521   c-0.083,1.336,0.468,2.633,1.488,3.5c0.776,0.66,1.755,1.013,2.753,1.013c0.313,0,0.629-0.035,0.941-0.105l26.206-5.95v90.545   c0,16.052,13.06,29.112,29.113,29.112c16.052,0,29.111-13.06,29.111-29.112V358.028l5.281-1.199l42.869,112.155   c4.457,11.538,15.503,18.624,27.189,18.624c3.481,0,7.02-0.629,10.456-1.957c7.254-2.801,12.982-8.26,16.13-15.37   c3.148-7.111,3.339-15.022,0.537-22.278l-40.267-104.096l67.909-15.419c1.306-0.296,2.395-1.19,2.94-2.413   C459.37,324.852,459.308,323.444,458.656,322.274z M388.39,170.273c2.181,0.874,4.653-0.188,5.524-2.367l13.773-34.431   c1.697-4.222,4.952-7.53,9.165-9.315c4.214-1.785,8.869-1.83,13.106-0.126c8.69,3.493,12.906,13.438,9.395,22.176l-21.615,54.035   c-0.028,0.063-0.055,0.127-0.081,0.191c-0.015,0.04-0.032,0.086-0.049,0.133c-3.44,8.404-12.933,12.562-21.465,9.532   l-23.459-42.095c-1.021-1.867-2.163-3.658-3.406-5.378L388.39,170.273z M179.186,155.051c5.182,0,10.053,2.018,13.717,5.682   c3.664,3.663,5.682,8.535,5.682,13.717c0,5.147-1.996,9.987-5.614,13.642c-7.48-0.219-14.495-3.208-19.822-8.535   c-4.85-4.85-7.814-11.2-8.432-17.996c0.249-0.278,0.486-0.563,0.752-0.829C169.133,157.069,174.004,155.051,179.186,155.051z    M165.469,188.166c-3.473-3.472-5.444-8.034-5.643-12.911c1.824,3.788,4.279,7.279,7.313,10.313   c3.611,3.61,7.819,6.393,12.401,8.264c-0.119,0.002-0.235,0.017-0.354,0.017C174.004,193.849,169.133,191.83,165.469,188.166z    M133.283,225.308l-4.955-4.956c-0.852-0.852-1.32-1.984-1.32-3.188s0.469-2.336,1.321-3.188l26.297-26.298   c1.256,2.335,2.864,4.53,4.832,6.499c1.947,1.947,4.133,3.568,6.489,4.842l-26.289,26.288c-0.851,0.852-1.983,1.32-3.187,1.32   C135.267,226.628,134.134,226.16,133.283,225.308z M153.28,223.707l21.085-21.084c0.19-0.19,0.352-0.396,0.498-0.61   c1.418,0.219,2.861,0.335,4.323,0.335c7.452,0,14.458-2.902,19.728-8.171c2.464-2.465,4.365-5.281,5.712-8.288   c0.162-0.009,0.324-0.014,0.488-0.041l46.577-7.952c-2.655,5.914-4.256,12.182-4.586,18.589l-0.749,12.084L153.28,223.707z    M317.279,461.792c0,11.365-9.246,20.612-20.611,20.612c-0.692,0-1.376-0.037-2.051-0.104c0.008-0.103,0.031-0.203,0.031-0.308v-76   c0-2.347-1.903-4.25-4.25-4.25s-4.25,1.903-4.25,4.25v73.494c-6.032-3.6-10.094-10.173-10.094-17.693v-92.475l41.225-9.36V461.792z    M420.314,451.067c1.984,5.136,1.849,10.737-0.38,15.772c-0.061,0.139-0.138,0.266-0.202,0.403l-27.369-70.782   c-0.846-2.189-3.306-3.278-5.497-2.431c-2.19,0.846-3.278,3.307-2.431,5.496l29,75c0.047,0.121,0.109,0.232,0.165,0.346   c-1.535,1.169-3.238,2.136-5.087,2.85c-10.603,4.092-22.559-1.2-26.649-11.787l-42.43-111.007l40.164-9.119L420.314,451.067z    M245,367.652l1.413-22.762l72.937-16.756c2.288-0.525,3.716-2.806,3.19-5.094c-0.526-2.288-2.806-3.716-5.094-3.19l-70.485,16.192   l3.515-56.644l109.434-25.028c2.289-0.52,3.723-2.796,3.204-5.086c-0.52-2.289-2.801-3.723-5.085-3.204l-106.777,24.244   c-0.076,0.017-0.143,0.052-0.216,0.073l4.556-73.431c1.152-22.43,20.735-42.966,46.563-48.83c4.744-1.077,9.641-1.623,14.555-1.623   c9.5,0,18.971,2.204,26.751,5.765c0.177,0.103-0.195-0.078,0,0l0,0c9.207,4.436,17.161,11.384,21.784,19.836l24.087,43.222   c0.044,0.086,0.091,0.169,0.141,0.253l58.998,105.866L245,367.652z"
   id="path4"
   style="fill:#0a2348;fill-opacity:1" />
</g>
<g
   id="g8">
</g>
<g
   id="g10">
</g>
<g
   id="g12">
</g>
<g
   id="g14">
</g>
<g
   id="g16">
</g>
<g
   id="g18">
</g>
<g
   id="g20">
</g>
<g
   id="g22">
</g>
<g
   id="g24">
</g>
<g
   id="g26">
</g>
<g
   id="g28">
</g>
<g
   id="g30">
</g>
<g
   id="g32">
</g>
<g
   id="g34">
</g>
<g
   id="g36">
</g>
</svg>