<?xml version="1.0" encoding="UTF-8" standalone="no"?>
<!-- Generator: Adobe Illustrator 16.0.0, SVG Export Plug-In . SVG Version: 6.00 Build 0)  -->

<svg
   xmlns:dc="http://purl.org/dc/elements/1.1/"
   xmlns:cc="http://creativecommons.org/ns#"
   xmlns:rdf="http://www.w3.org/1999/02/22-rdf-syntax-ns#"
   xmlns:svg="http://www.w3.org/2000/svg"
   xmlns="http://www.w3.org/2000/svg"
   xmlns:sodipodi="http://sodipodi.sourceforge.net/DTD/sodipodi-0.dtd"
   xmlns:inkscape="http://www.inkscape.org/namespaces/inkscape"
   version="1.1"
   id="Capa_1"
   x="0px"
   y="0px"
   width="73.083778"
   height="74.403198"
   viewBox="0 0 73.08378 74.403202"
   xml:space="preserve"
   sodipodi:docname="RecInstCircle.svg"
   inkscape:version="0.92.4 (5da689c313, 2019-01-14)"
   inkscape:export-filename="E:\Personal Projects\recinst\public\RecInstCircle.png"
   inkscape:export-xdpi="96"
   inkscape:export-ydpi="96"><metadata
   id="metadata77"><rdf:RDF><cc:Work
       rdf:about=""><dc:format>image/svg+xml</dc:format><dc:type
         rdf:resource="http://purl.org/dc/dcmitype/StillImage" /><dc:title></dc:title></cc:Work></rdf:RDF></metadata><defs
   id="defs75" /><sodipodi:namedview
   pagecolor="#ffffff"
   bordercolor="#666666"
   borderopacity="1"
   objecttolerance="10"
   gridtolerance="10"
   guidetolerance="10"
   inkscape:pageopacity="0"
   inkscape:pageshadow="2"
   inkscape:window-width="1920"
   inkscape:window-height="1017"
   id="namedview73"
   showgrid="false"
   inkscape:zoom="1.8101934"
   inkscape:cx="114.81268"
   inkscape:cy="-17.441145"
   inkscape:window-x="-8"
   inkscape:window-y="-8"
   inkscape:window-maximized="1"
   inkscape:current-layer="Capa_1" />

<g
   id="g42"
   transform="translate(231.46509,2.0443445)">
</g>
<g
   id="g44"
   transform="translate(231.46509,2.0443445)">
</g>
<g
   id="g46"
   transform="translate(231.46509,2.0443445)">
</g>
<g
   id="g48"
   transform="translate(231.46509,2.0443445)">
</g>
<g
   id="g50"
   transform="translate(231.46509,2.0443445)">
</g>
<g
   id="g52"
   transform="translate(231.46509,2.0443445)">
</g>
<g
   id="g54"
   transform="translate(231.46509,2.0443445)">
</g>
<g
   id="g56"
   transform="translate(231.46509,2.0443445)">
</g>
<g
   id="g58"
   transform="translate(231.46509,2.0443445)">
</g>
<g
   id="g60"
   transform="translate(231.46509,2.0443445)">
</g>
<g
   id="g62"
   transform="translate(231.46509,2.0443445)">
</g>
<g
   id="g64"
   transform="translate(231.46509,2.0443445)">
</g>
<g
   id="g66"
   transform="translate(231.46509,2.0443445)">
</g>
<g
   id="g68"
   transform="translate(231.46509,2.0443445)">
</g>
<g
   id="g70"
   transform="translate(231.46509,2.0443445)">
</g>
<flowRoot
   xml:space="preserve"
   id="flowRoot4544"
   style="font-style:normal;font-weight:normal;font-size:40px;line-height:1.25;font-family:sans-serif;letter-spacing:0px;word-spacing:0px;fill:#0a2348;fill-opacity:1;stroke:none"
   transform="translate(236.6437,68.822504)"><flowRegion
     id="flowRegion4546"
     style="fill:#0a2348;fill-opacity:1"><rect
       id="rect4548"
       width="376.97818"
       height="222.95566"
       x="-66.778992"
       y="-99.258392"
       style="fill:#0a2348;fill-opacity:1" /></flowRegion><flowPara
     id="flowPara4550" /></flowRoot>

<g
   inkscape:groupmode="layer"
   id="layer1"
   inkscape:label="note"
   transform="translate(-47.70555,-141.37519)" /><ellipse
   style="fill:#0a2348;fill-opacity:1;stroke:#2c5dc7;stroke-width:0.37795275;stroke-miterlimit:4;stroke-dasharray:none;stroke-opacity:1"
   id="path1523"
   cx="36.541889"
   cy="37.201599"
   rx="36.352913"
   ry="37.012623" /><g
   inkscape:groupmode="layer"
   id="layer2"
   inkscape:label="note1"
   transform="translate(-15.831415,87.687034)"><g
     id="g40"
     style="fill:#0a2348;fill-opacity:1;stroke-width:1.16944027;stroke-miterlimit:4;stroke-dasharray:none"
     transform="matrix(0.18863644,0,0,0.21377322,257.6903,-38.947638)">
	<g
   id="g38"
   style="fill:#0a2348;fill-opacity:1;stroke-width:1.16944027;stroke-miterlimit:4;stroke-dasharray:none"
   transform="matrix(0.94816435,0,0,0.92979065,-65.466955,269.75916)">
		
	<path
   d="m -1167.9587,-224.85808 c 26.685,0 48.392,-21.702 48.392,-48.389 v -155.825 l 132.26598,-43.826 c -0.94,0.454 -1.598,1.395 -1.598,2.506 v 135.306 c -8.109,-15.349 -24.22898,-25.849 -42.78898,-25.849 -26.694,0 -48.405,21.712 -48.405,48.395 0,26.681 21.711,48.388 48.405,48.388 26.68,0 48.39298,-21.702 48.39298,-48.388 v -157.846 c 0,-1.549 -1.27,-2.802 -2.802,-2.802 -0.285,0 -0.537,0.082 -0.799,0.158 l 1.686,-0.558 c 1.466,-0.487 2.245,-2.074 1.764,-3.54 -0.494,-1.467 -2.081,-2.266 -3.553,-1.779 l -136.26698,45.156 c -0.033,0.011 -0.061,0.038 -0.096,0.055 -0.194,0.071 -0.359,0.191 -0.525,0.301 -0.135,0.093 -0.287,0.164 -0.399,0.273 -0.135,0.121 -0.224,0.28 -0.329,0.427 -0.1,0.148 -0.219,0.279 -0.292,0.438 -0.066,0.153 -0.091,0.317 -0.135,0.476 -0.049,0.197 -0.112,0.383 -0.117,0.585 0,0.039 -0.022,0.072 -0.022,0.109 v 135.308 c -8.121,-15.351 -24.242,-25.852 -42.789,-25.852 -26.681,0 -48.389,21.715 -48.389,48.395 0.023,26.699 21.724,48.378 48.4,48.378 z m 136.277,-44.898 c -23.585,0 -42.808,-19.195 -42.808,-42.784 0,-23.597 19.223,-42.792 42.808,-42.792 23.593,0 42.78798,19.195 42.78798,42.792 0,23.589 -19.19598,42.784 -42.78798,42.784 z m -136.277,-46.286 c 23.591,0 42.789,19.2 42.789,42.796 0,23.585 -19.198,42.785 -42.789,42.785 -23.59,0 -42.785,-19.2 -42.785,-42.785 0,-23.596 19.19,-42.796 42.785,-42.796 z"
   id="path36"
   style="fill:#3870f2;fill-opacity:1;stroke-width:1.16944027;stroke-miterlimit:4;stroke-dasharray:none"
   inkscape:connector-curvature="0" /></g>
</g></g></svg>