<?xml version="1.0" encoding="UTF-8" standalone="no"?>
<!-- Generator: Adobe Illustrator 16.0.0, SVG Export Plug-In . SVG Version: 6.00 Build 0)  -->

<svg
   xmlns:dc="http://purl.org/dc/elements/1.1/"
   xmlns:cc="http://creativecommons.org/ns#"
   xmlns:rdf="http://www.w3.org/1999/02/22-rdf-syntax-ns#"
   xmlns:svg="http://www.w3.org/2000/svg"
   xmlns="http://www.w3.org/2000/svg"
   xmlns:sodipodi="http://sodipodi.sourceforge.net/DTD/sodipodi-0.dtd"
   xmlns:inkscape="http://www.inkscape.org/namespaces/inkscape"
   version="1.1"
   id="Capa_1"
   x="0px"
   y="0px"
   width="320.65009"
   height="99"
   viewBox="0 0 320.65009 99.000005"
   xml:space="preserve"
   sodipodi:docname="RecInst.svg"
   inkscape:version="0.92.4 (5da689c313, 2019-01-14)"><metadata
   id="metadata77"><rdf:RDF><cc:Work
       rdf:about=""><dc:format>image/svg+xml</dc:format><dc:type
         rdf:resource="http://purl.org/dc/dcmitype/StillImage" /></cc:Work></rdf:RDF></metadata><defs
   id="defs75" /><sodipodi:namedview
   pagecolor="#ffffff"
   bordercolor="#666666"
   borderopacity="1"
   objecttolerance="10"
   gridtolerance="10"
   guidetolerance="10"
   inkscape:pageopacity="0"
   inkscape:pageshadow="2"
   inkscape:window-width="1920"
   inkscape:window-height="1017"
   id="namedview73"
   showgrid="false"
   inkscape:zoom="1.8101934"
   inkscape:cx="150.44423"
   inkscape:cy="-55.558612"
   inkscape:window-x="-8"
   inkscape:window-y="-8"
   inkscape:window-maximized="1"
   inkscape:current-layer="Capa_1" />

<g
   id="g42"
   transform="translate(356.86606,64.758616)">
</g>
<g
   id="g44"
   transform="translate(356.86606,64.758616)">
</g>
<g
   id="g46"
   transform="translate(356.86606,64.758616)">
</g>
<g
   id="g48"
   transform="translate(356.86606,64.758616)">
</g>
<g
   id="g50"
   transform="translate(356.86606,64.758616)">
</g>
<g
   id="g52"
   transform="translate(356.86606,64.758616)">
</g>
<g
   id="g54"
   transform="translate(356.86606,64.758616)">
</g>
<g
   id="g56"
   transform="translate(356.86606,64.758616)">
</g>
<g
   id="g58"
   transform="translate(356.86606,64.758616)">
</g>
<g
   id="g60"
   transform="translate(356.86606,64.758616)">
</g>
<g
   id="g62"
   transform="translate(356.86606,64.758616)">
</g>
<g
   id="g64"
   transform="translate(356.86606,64.758616)">
</g>
<g
   id="g66"
   transform="translate(356.86606,64.758616)">
</g>
<g
   id="g68"
   transform="translate(356.86606,64.758616)">
</g>
<g
   id="g70"
   transform="translate(356.86606,64.758616)">
</g>
<flowRoot
   xml:space="preserve"
   id="flowRoot4544"
   style="font-style:normal;font-weight:normal;font-size:40px;line-height:1.25;font-family:sans-serif;letter-spacing:0px;word-spacing:0px;fill:#0a2348;fill-opacity:1;stroke:none"
   transform="translate(362.04467,131.53678)"><flowRegion
     id="flowRegion4546"
     style="fill:#0a2348;fill-opacity:1"><rect
       id="rect4548"
       width="376.97818"
       height="222.95566"
       x="-66.778992"
       y="-99.258392"
       style="fill:#0a2348;fill-opacity:1" /></flowRegion><flowPara
     id="flowPara4550" /></flowRoot><g
   aria-label="RecInst"
   style="font-style:normal;font-weight:normal;font-size:40px;line-height:1.25;font-family:sans-serif;letter-spacing:0px;word-spacing:0px;fill:#0a2348;fill-opacity:1;stroke:none"
   id="text4554"
   transform="translate(-7.3922578,-7.2983269)"><path
     d="M 125.55907,63.267469 V 84.01226 H 115.6424 V 30.710179 h 12.97917 q 8.23958,0 12.14062,3.901041 3.9375,3.901042 3.9375,11.921875 0,10.098958 -6.8177,14.109375 l 10.24479,23.36979 H 137.5174 l -8.42187,-20.744791 z m 0,-8.531249 h 2.55208 q 3.5,0 5.03125,-1.96875 1.53125,-2.005208 1.53125,-5.942708 0,-4.083333 -1.64062,-5.796875 -1.60417,-1.75 -4.99479,-1.75 h -2.47917 z"
     style="font-style:normal;font-variant:normal;font-weight:normal;font-stretch:normal;font-size:74.66666412px;font-family:'Open Sans Condensed';-inkscape-font-specification:'Open Sans Condensed, '"
     id="path840"
     inkscape:connector-curvature="0" /><path
     d="m 167.37678,84.741427 q -7.6198,0 -12.03125,-5.395833 -4.375,-5.432292 -4.375,-15.348958 0,-10.0625 3.97395,-15.713541 3.97396,-5.651041 11.08334,-5.651041 6.63541,0 10.46354,4.848958 3.82812,4.8125 3.82812,13.526041 v 5.177083 h -19.5052 q 0.10937,5.432292 2.22395,8.09375 2.11459,2.625 5.83334,2.625 4.73958,0 9.69791,-2.953125 v 7.984375 q -4.66666,2.807291 -11.1927,2.807291 z M 165.9549,50.106012 q -2.07812,0 -3.42708,2.223958 -1.34896,2.1875 -1.56771,6.817708 h 9.84375 q -0.0729,-4.447917 -1.34896,-6.744791 -1.27604,-2.296875 -3.5,-2.296875 z"
     style="font-style:normal;font-variant:normal;font-weight:normal;font-stretch:normal;font-size:74.66666412px;font-family:'Open Sans Condensed';-inkscape-font-specification:'Open Sans Condensed, '"
     id="path842"
     inkscape:connector-curvature="0" /><path
     d="m 200.22574,84.741427 q -7.25521,0 -11.04688,-5.286458 -3.79167,-5.286458 -3.79167,-15.53125 0,-10.718749 3.57292,-16.005207 3.60938,-5.286458 11.11979,-5.286458 2.26042,0 4.73959,0.656249 2.47916,0.65625 4.44791,1.895834 l -2.77083,7.546875 q -3.02604,-1.786459 -5.35938,-1.786459 -3.09895,0 -4.48437,3.244792 -1.34896,3.208333 -1.34896,9.661458 0,6.307291 1.34896,9.442708 1.34896,3.098958 4.41146,3.098958 3.64583,0 7.61979,-2.552083 v 8.531249 q -3.82813,2.369792 -8.45833,2.369792 z"
     style="font-style:normal;font-variant:normal;font-weight:normal;font-stretch:normal;font-size:74.66666412px;font-family:'Open Sans Condensed';-inkscape-font-specification:'Open Sans Condensed, '"
     id="path844"
     inkscape:connector-curvature="0" /><path
     d="M 216.88719,84.01226 V 30.710179 h 9.33333 V 84.01226 Z"
     style="font-style:normal;font-variant:normal;font-weight:normal;font-stretch:normal;font-size:74.66666412px;font-family:'Open Sans Condensed';-inkscape-font-specification:'Open Sans Condensed, '"
     id="path846"
     inkscape:connector-curvature="0" /><path
     d="M 257.2101,84.01226 V 59.803928 q 0,-4.411458 -1.05729,-6.671875 -1.05729,-2.260416 -3.42708,-2.260416 -3.13542,0 -4.59375,3.135416 -1.45834,3.098958 -1.45834,10.5 V 84.01226 h -9.69791 V 43.397678 h 7.6927 l 1.16667,5.213542 h 0.61979 q 1.3125,-2.807292 3.75521,-4.375 2.44271,-1.604166 5.72396,-1.604166 5.54166,0 8.27604,3.791666 2.77083,3.791667 2.77083,11.083333 V 84.01226 Z"
     style="font-style:normal;font-variant:normal;font-weight:normal;font-stretch:normal;font-size:74.66666412px;font-family:'Open Sans Condensed';-inkscape-font-specification:'Open Sans Condensed, '"
     id="path848"
     inkscape:connector-curvature="0" /><path
     d="m 296.69448,72.126844 q 0,5.942708 -3.5,9.296875 -3.46354,3.317708 -10.24479,3.317708 -6.01563,0 -9.95313,-2.369792 v -8.421874 q 2.00521,1.385416 4.66667,2.296875 2.69792,0.911458 4.73958,0.911458 2.26042,0 3.42709,-1.09375 1.20312,-1.130208 1.20312,-2.953125 0,-1.859375 -1.23958,-3.244791 -1.23958,-1.385417 -4.55729,-3.390625 -4.41146,-2.625 -6.34375,-5.578125 -1.89584,-2.989583 -1.89584,-7.036458 0,-5.177083 3.53646,-8.203125 3.57292,-3.026041 9.77084,-3.026041 5.39583,0 10.17187,2.843749 l -3.17187,6.963542 q -3.90105,-2.114583 -6.85417,-2.114583 -1.85938,0 -2.80729,0.984375 -0.91146,0.984375 -0.91146,2.406249 0,1.640625 1.13021,2.916667 1.16666,1.276042 4.30208,3.171875 3.79167,2.296875 5.32292,3.901041 1.53125,1.604167 2.36979,3.645834 0.83854,2.041666 0.83854,4.776041 z"
     style="font-style:normal;font-variant:normal;font-weight:normal;font-stretch:normal;font-size:74.66666412px;font-family:'Open Sans Condensed';-inkscape-font-specification:'Open Sans Condensed, '"
     id="path850"
     inkscape:connector-curvature="0" /><path
     d="m 317.00177,76.538302 q 2.04167,0 4.41146,-1.020833 v 7.583333 q -2.36979,1.640625 -7.10937,1.640625 -5.28646,0 -7.83855,-3.135416 -2.55208,-3.171875 -2.55208,-9.479167 V 51.090387 h -3.9375 v -4.338542 l 5.06771,-3.5 2.47917,-8.604166 h 6.19791 v 8.749999 h 7.36459 v 7.692709 h -7.36459 v 21.364582 q 0,4.083333 3.28125,4.083333 z"
     style="font-style:normal;font-variant:normal;font-weight:normal;font-stretch:normal;font-size:74.66666412px;font-family:'Open Sans Condensed';-inkscape-font-specification:'Open Sans Condensed, '"
     id="path852"
     inkscape:connector-curvature="0" /><flowRoot
     xml:space="preserve"
     id="flowRoot1515"
     style="font-style:normal;font-weight:normal;font-size:40px;line-height:1.25;font-family:sans-serif;letter-spacing:0px;word-spacing:0px;fill:#000000;fill-opacity:1;stroke:none"><flowRegion
       id="flowRegion1517"><rect
         id="rect1519"
         width="197.21651"
         height="95.017471"
         x="117.66698"
         y="13.428502" /></flowRegion><flowPara
       id="flowPara1521" /></flowRoot></g>

<g
   inkscape:groupmode="layer"
   id="layer1"
   inkscape:label="note"
   transform="translate(77.695418,-78.660918)" /><ellipse
   style="fill:#0a2348;fill-opacity:1;stroke:#2c5dc7;stroke-width:0.50741869;stroke-miterlimit:4;stroke-dasharray:none;stroke-opacity:1"
   id="path1523"
   cx="49.499996"
   cy="49.5"
   rx="49.246288"
   ry="49.246292" /><g
   inkscape:groupmode="layer"
   id="layer2"
   inkscape:label="note1"
   transform="translate(109.56955,150.40131)"><g
     id="g40"
     style="fill:#0a2348;fill-opacity:1;stroke-width:1.16944027;stroke-miterlimit:4;stroke-dasharray:none"
     transform="matrix(0.26994502,0,0,0.26779432,235.80561,-85.3154)">
	<g
   id="g38"
   style="fill:#0a2348;fill-opacity:1;stroke-width:1.16944027;stroke-miterlimit:4;stroke-dasharray:none"
   transform="matrix(0.94816435,0,0,0.92979065,-65.466955,269.75916)">
		
	<path
   d="m -1167.9587,-224.85808 c 26.685,0 48.392,-21.702 48.392,-48.389 v -155.825 l 132.26598,-43.826 c -0.94,0.454 -1.598,1.395 -1.598,2.506 v 135.306 c -8.109,-15.349 -24.22898,-25.849 -42.78898,-25.849 -26.694,0 -48.405,21.712 -48.405,48.395 0,26.681 21.711,48.388 48.405,48.388 26.68,0 48.39298,-21.702 48.39298,-48.388 v -157.846 c 0,-1.549 -1.27,-2.802 -2.802,-2.802 -0.285,0 -0.537,0.082 -0.799,0.158 l 1.686,-0.558 c 1.466,-0.487 2.245,-2.074 1.764,-3.54 -0.494,-1.467 -2.081,-2.266 -3.553,-1.779 l -136.26698,45.156 c -0.033,0.011 -0.061,0.038 -0.096,0.055 -0.194,0.071 -0.359,0.191 -0.525,0.301 -0.135,0.093 -0.287,0.164 -0.399,0.273 -0.135,0.121 -0.224,0.28 -0.329,0.427 -0.1,0.148 -0.219,0.279 -0.292,0.438 -0.066,0.153 -0.091,0.317 -0.135,0.476 -0.049,0.197 -0.112,0.383 -0.117,0.585 0,0.039 -0.022,0.072 -0.022,0.109 v 135.308 c -8.121,-15.351 -24.242,-25.852 -42.789,-25.852 -26.681,0 -48.389,21.715 -48.389,48.395 0.023,26.699 21.724,48.378 48.4,48.378 z m 136.277,-44.898 c -23.585,0 -42.808,-19.195 -42.808,-42.784 0,-23.597 19.223,-42.792 42.808,-42.792 23.593,0 42.78798,19.195 42.78798,42.792 0,23.589 -19.19598,42.784 -42.78798,42.784 z m -136.277,-46.286 c 23.591,0 42.789,19.2 42.789,42.796 0,23.585 -19.198,42.785 -42.789,42.785 -23.59,0 -42.785,-19.2 -42.785,-42.785 0,-23.596 19.19,-42.796 42.785,-42.796 z"
   id="path36"
   style="fill:#3870f2;fill-opacity:1;stroke-width:1.16944027;stroke-miterlimit:4;stroke-dasharray:none"
   inkscape:connector-curvature="0" /></g>
</g></g></svg>