<?xml version="1.0" encoding="UTF-8" standalone="no"?>
<svg
   xmlns:dc="http://purl.org/dc/elements/1.1/"
   xmlns:cc="http://creativecommons.org/ns#"
   xmlns:rdf="http://www.w3.org/1999/02/22-rdf-syntax-ns#"
   xmlns:svg="http://www.w3.org/2000/svg"
   xmlns="http://www.w3.org/2000/svg"
   xmlns:sodipodi="http://sodipodi.sourceforge.net/DTD/sodipodi-0.dtd"
   xmlns:inkscape="http://www.inkscape.org/namespaces/inkscape"
   version="1.1"
   viewBox="0 0 129 129"
   enable-background="new 0 0 129 129"
   id="svg6"
   sodipodi:docname="refresh.svg"
   inkscape:version="0.92.4 (5da689c313, 2019-01-14)">
  <metadata
     id="metadata12">
    <rdf:RDF>
      <cc:Work
         rdf:about="">
        <dc:format>image/svg+xml</dc:format>
        <dc:type
           rdf:resource="http://purl.org/dc/dcmitype/StillImage" />
      </cc:Work>
    </rdf:RDF>
  </metadata>
  <defs
     id="defs10" />
  <sodipodi:namedview
     pagecolor="#ffffff"
     bordercolor="#666666"
     borderopacity="1"
     objecttolerance="10"
     gridtolerance="10"
     guidetolerance="10"
     inkscape:pageopacity="0"
     inkscape:pageshadow="2"
     inkscape:window-width="1920"
     inkscape:window-height="1017"
     id="namedview8"
     showgrid="false"
     inkscape:zoom="1.8294574"
     inkscape:cx="64.5"
     inkscape:cy="64.5"
     inkscape:window-x="-8"
     inkscape:window-y="-8"
     inkscape:window-maximized="1"
     inkscape:current-layer="g4" />
  <g
     id="g4">
    <path
       d="m 117.95339,8.1398306 c -2.3,0 -4.1,-0.9330509 -4.1,1.3669491 V 33.80678 c -10.3,-17.3 -29,-28.4000003 -49.9,-28.4000003 -32,0 -58.0000002,26.0000003 -58.0000002,58.1000003 0,32.1 26.0000002,58 58.0000002,58 32,0 58,-26 58,-58 0,-2.3 -1.8,-1.366949 -4.1,-1.366949 -2.3,0 -4.1,-0.933051 -4.1,1.366949 0,27.5 -22.4,49.9 -49.9,49.9 -27.5,0 -49.8,-22.5 -49.8,-50 0,-27.5 22.4,-49.9 49.9,-49.9 19.7,0 37.3,11.5 45.3,29.1 h -28.7 c -2.3,0 -0.820339,1.8 -0.820339,4.1 0,2.3 -1.479661,4.1 0.820339,4.1 h 37.3 c 2.3,0 4.1,-1.8 4.1,-4.1 V 9.4067797 c 0,-2.2 -1.8,-1.2669491 -4,-1.2669491 z"
       id="path2"
       inkscape:connector-curvature="0"
       sodipodi:nodetypes="sscssssssssscsssssss"
       style="fill:#2c5dc7;fill-opacity:1" />
  </g>
</svg>
