<?xml version="1.0" encoding="UTF-8" standalone="no"?>
<!-- Generator: Adobe Illustrator 16.0.0, SVG Export Plug-In . SVG Version: 6.00 Build 0)  -->

<svg
   xmlns:dc="http://purl.org/dc/elements/1.1/"
   xmlns:cc="http://creativecommons.org/ns#"
   xmlns:rdf="http://www.w3.org/1999/02/22-rdf-syntax-ns#"
   xmlns:svg="http://www.w3.org/2000/svg"
   xmlns="http://www.w3.org/2000/svg"
   xmlns:sodipodi="http://sodipodi.sourceforge.net/DTD/sodipodi-0.dtd"
   xmlns:inkscape="http://www.inkscape.org/namespaces/inkscape"
   version="1.1"
   id="Capa_1"
   x="0px"
   y="0px"
   width="516.375px"
   height="516.375px"
   viewBox="0 0 516.375 516.375"
   style="enable-background:new 0 0 516.375 516.375;"
   xml:space="preserve"
   sodipodi:docname="upload-to-the-cloud-stroke-interface-symbol.svg"
   inkscape:version="0.92.4 (5da689c313, 2019-01-14)"><metadata
   id="metadata45"><rdf:RDF><cc:Work
       rdf:about=""><dc:format>image/svg+xml</dc:format><dc:type
         rdf:resource="http://purl.org/dc/dcmitype/StillImage" /></cc:Work></rdf:RDF></metadata><defs
   id="defs43" /><sodipodi:namedview
   pagecolor="#ffffff"
   bordercolor="#666666"
   borderopacity="1"
   objecttolerance="10"
   gridtolerance="10"
   guidetolerance="10"
   inkscape:pageopacity="0"
   inkscape:pageshadow="2"
   inkscape:window-width="1920"
   inkscape:window-height="1017"
   id="namedview41"
   showgrid="false"
   inkscape:zoom="0.4570322"
   inkscape:cx="258.1875"
   inkscape:cy="258.1875"
   inkscape:window-x="-8"
   inkscape:window-y="-8"
   inkscape:window-maximized="1"
   inkscape:current-layer="Capa_1" />
<g
   id="g8"
   style="stroke:#2c5dc7;stroke-opacity:1;fill:#2c5dc7;fill-opacity:1">
	<g
   id="g6"
   style="stroke:#2c5dc7;stroke-opacity:1;fill:#2c5dc7;fill-opacity:1">
		<path class="arrow-upload"
   style="stroke:#2c5dc7;stroke-opacity:1;fill:#2c5dc7;fill-opacity:1"
   d="M 344.25,306 258.188,219.938 172.125,306 l 15.3,13.388 61.2,-61.2 V 468.562 H 267.75 V 258.188 l 61.2,61.2 z"
   id="polygon2" />
		<path
   d="M457.088,189.337c-9.562-47.812-53.551-84.15-103.275-84.15c-17.213,0-32.513,3.825-45.9,11.475    c-22.949-42.075-66.937-68.85-116.662-68.85c-74.587,0-133.875,59.288-133.875,133.875c0,1.913,0,5.737,0,7.65    C22.95,204.638,0,237.15,0,277.312c0,53.55,42.075,95.625,95.625,95.625H229.5v-19.125H95.625c-42.075,0-76.5-34.425-76.5-76.5    c0-36.337,24.862-66.938,59.288-74.587c-1.913-7.65-1.913-13.388-1.913-21.038c0-63.112,51.638-114.75,114.75-114.75    c49.725,0,91.8,32.513,109.013,76.5c15.3-11.475,34.425-19.125,53.55-19.125c45.9,0,82.237,34.425,86.062,78.413    c32.513,7.65,57.375,38.25,57.375,74.587c0,42.075-34.425,76.5-76.5,76.5H286.875v19.125H420.75    c53.55,0,95.625-42.075,95.625-95.625C516.375,237.15,491.513,202.725,457.088,189.337z"
   id="path4"
   style="stroke:#2c5dc7;stroke-opacity:1;fill:#2c5dc7;fill-opacity:1" />
	</g>
</g>
<g
   id="g10">
</g>
<g
   id="g12">
</g>
<g
   id="g14">
</g>
<g
   id="g16">
</g>
<g
   id="g18">
</g>
<g
   id="g20">
</g>
<g
   id="g22">
</g>
<g
   id="g24">
</g>
<g
   id="g26">
</g>
<g
   id="g28">
</g>
<g
   id="g30">
</g>
<g
   id="g32">
</g>
<g
   id="g34">
</g>
<g
   id="g36">
</g>
<g
   id="g38">
</g>
</svg>